<svg xmlns="http://www.w3.org/2000/svg" width="352.5" height="157">
    <defs>
        <radialGradient id="a">
            <stop offset="0%"/>
            <stop offset="100%" stop-color="#FFF"/>
        </radialGradient>
        <radialGradient id="b">
            <stop offset="0%" stop-color="#12100C"/>
            <stop offset="100%" stop-color="#FFF"/>
        </radialGradient>
    </defs>
    <path fill="url(#a)" fill-rule="evenodd" d="M62 32.5c34.242 0 62 27.758 62 62 0 34.242-27.758 62-62 62-34.242 0-62-27.758-62-62 0-34.242 27.758-62 62-62z" opacity=".149"/>
    <path fill="url(#b)" fill-rule="evenodd" d="M283 34.5c38.108 0 69 27.311 69 61s-30.892 61-69 61c-38.108 0-69-27.311-69-61s30.892-61 69-61z" opacity=".149"/>
    <path fill="#FFF" fill-rule="evenodd" stroke="#CB94FF" d="M298.37 62.736c.081-1.013.132-2.034.132-3.069 0-20.205-15.731-36.585-35.137-36.585-6.597 0-12.767 1.897-18.04 5.189-4.961-13.94-17.843-23.876-32.956-23.876-8.532 0-16.352 3.169-22.439 8.434-.707.272-1.409.557-2.104.86-72.785-38.2-133.109 15.545-137.732 48.424C34.397 68.16 23 86.298 23 107.733c0 26.381 17.263 47.767 38.558 47.767h223.884c21.295 0 38.558-21.386 38.558-47.767 0-20.761-10.696-38.413-25.63-44.997z"/>
</svg>
