<svg xmlns="http://www.w3.org/2000/svg" width="324" height="157">
    <defs>
        <radialGradient id="a">
            <stop offset="0%" stop-color="#12100C"/>
            <stop offset="100%" stop-color="#FFF"/>
        </radialGradient>
    </defs>
    <path fill="url(#a)" fill-rule="evenodd" d="M254.5 34.5c38.108 0 69 27.311 69 61s-30.892 61-69 61c-38.108 0-69-27.311-69-61s30.892-61 69-61z" opacity=".149"/>
    <path fill="#FFF" fill-rule="evenodd" stroke="#CB94FF" d="M270.381 62.736a39.4 39.4 0 0 0 .129-3.069c0-20.205-15.418-36.585-34.437-36.585-6.465 0-12.511 1.897-17.68 5.189-4.862-13.94-17.487-23.876-32.299-23.876-8.362 0-16.026 3.169-21.992 8.434a50.62 50.62 0 0 0-2.061.86C90.707-24.511 31.585 29.234 27.054 62.113 11.67 68.16.5 86.298.5 107.733c0 26.381 16.919 47.767 37.789 47.767h219.422c20.87 0 37.789-21.386 37.789-47.767 0-20.761-10.483-38.413-25.119-44.997z"/>
</svg>
