<svg xmlns="http://www.w3.org/2000/svg" width="21" height="16" viewBox="0 0 21 16">
    <path fill="#00AEEF" fill-rule="evenodd" d="M20.456.69c.075-.164.053-.357-.058-.5-.11-.143-.292-.213-.47-.183L1.317 3.139C.503 3.276.214 4.295.838 4.836l3.109 2.697c.425.369 1.026.463 1.545.243L17.185 2.44 6.754 8.779c-.123.087-.358.338-.365.488-.007.15-.049.39.065.488l2.22 1.956 3.811 3.34c.495.432 1.27.268 1.543-.328L20.456.69zM5.08 9.113c-.146-.147-.37-.187-.558-.098-.188.088-.3.284-.279.49l.435 4.248c.02.187.145.346.323.41.178.063.377.02.511-.113l1.915-1.888c.192-.19.194-.498.003-.69l-2.35-2.36z"/>
</svg>
