<svg xmlns="http://www.w3.org/2000/svg" width="30" height="30" fill="none" viewBox="0 0 30 30">
    <path fill="#3699E0" fill-rule="evenodd" d="M22.907 9.19c.172.234.065.568 0 .708l-5.395 11.499c-.292.633-1.106.804-1.623.339l-2.891-2.598-3.058 1.546c-.124.062-.27.058-.39-.01-.12-.069-.197-.193-.208-.332l-.363-4.847-2.627-2.337c-.661-.589-.338-1.69.533-1.82l15.277-2.316c.15-.022.562-.08.745.168zM9.813 15.557l.247 3.287 1.032-1.957 9.416-6.193-10.695 4.863zm11.108-5.699L7.005 12.166c-.174.026-.239.246-.107.364l2.556 2.273 11.467-4.945zm.828.836l-9.666 6.52 1.255 1.111 3.1 2.786c.104.093.266.059.325-.068l4.986-10.349zm-10.22 7.142l-.799 1.514 1.597-.808-.798-.706z" clip-rule="evenodd"/>
</svg>
