<svg xmlns="http://www.w3.org/2000/svg" width="30" height="30" fill="none" viewBox="0 0 30 30">
    <path fill="#69B2E6" fill-rule="evenodd" d="M23.962 8.586c.064-.14.046-.303-.049-.424-.094-.122-.248-.182-.4-.156L7.696 10.668c-.694.117-.94.982-.41 1.442l2.643 2.293c.361.313.872.394 1.314.207l9.94-4.537-8.867 5.39c-.105.073-.304.287-.31.414-.007.127-.042.331.055.414l1.887 1.663 3.24 2.839c.42.368 1.078.228 1.31-.279l5.464-11.928zm-13.068 7.16c-.124-.125-.315-.159-.475-.084-.16.075-.255.242-.237.417l.37 3.611c.017.159.123.294.275.348.151.054.32.017.434-.096l1.628-1.604c.163-.162.165-.424.003-.586l-1.998-2.006z" clip-rule="evenodd"/>
    <path stroke="#69B2E6" stroke-linecap="round" d="M6.773 21.776l2.66-2.328M10.191 23.117l3.193-2.794M6 18.329L8.66 16"/>
</svg>
