<svg xmlns="http://www.w3.org/2000/svg" width="18" height="18" viewBox="0 0 18 18">
    <g fill="none" fill-rule="evenodd">
        <path fill="#30BB00" d="M8.655 17.311C3.883 17.311 0 13.428 0 8.656 0 3.883 3.883 0 8.655 0c4.772 0 8.655 3.883 8.655 8.656 0 4.772-3.883 8.655-8.655 8.655" transform="translate(.02 .5)"/>
        <path stroke="#FFF" stroke-linecap="round" stroke-linejoin="round" stroke-width="1.75" d="M12.59 10.387c-.785 1.395-2.227 2.227-3.86 2.227-1.688 0-3.143-.831-3.894-2.223" transform="translate(.02 .5)"/>
        <path fill="#FFF" d="M7.724 5.99c0 .809-.655 1.464-1.464 1.464-.809 0-1.465-.655-1.465-1.464 0-.81.656-1.464 1.465-1.464.81 0 1.464.655 1.464 1.464M12.756 6.131c0 .81-.656 1.464-1.464 1.464-.809 0-1.465-.655-1.465-1.464 0-.809.656-1.464 1.465-1.464.808 0 1.464.655 1.464 1.464" transform="translate(.02 .5)"/>
    </g>
</svg>
