<svg xmlns="http://www.w3.org/2000/svg" width="19" height="19" viewBox="0 0 19 19">
    <g fill="none" fill-rule="evenodd">
        <path fill="#30BB00" d="M1.454 9.656c0 1.4.32 3.966 2.4 5.856.754.687-.521 2.839-2.874 3.3h9.63c5.048 0 9.155-4.107 9.155-9.156C19.765 4.608 15.658.5 10.61.5 5.562.5 1.454 4.608 1.454 9.656z" transform="translate(-.98 -.5)"/>
        <path stroke="#FFF" stroke-linecap="round" stroke-linejoin="round" stroke-width="1.75" d="M14.59 11.387c-.785 1.395-2.227 2.227-3.86 2.227-1.688 0-3.143-.831-3.894-2.223" transform="translate(-.98 -.5)"/>
        <path fill="#FFF" d="M9.724 6.99c0 .809-.655 1.464-1.464 1.464-.809 0-1.465-.655-1.465-1.464 0-.81.656-1.464 1.465-1.464.81 0 1.464.655 1.464 1.464M14.756 7.131c0 .81-.656 1.464-1.464 1.464-.809 0-1.465-.655-1.465-1.464 0-.809.656-1.464 1.465-1.464.808 0 1.464.655 1.464 1.464" transform="translate(-.98 -.5)"/>
    </g>
</svg>
