<svg xmlns="http://www.w3.org/2000/svg" width="288.5" height="144.5">
    <path fill="#FFF" fill-rule="evenodd" stroke="#CB94FF" d="M263.062 57.918c.077-.935.126-1.877.126-2.832 0-18.641-15-33.752-33.503-33.752a33.16 33.16 0 0 0-17.201 4.787c-4.73-12.86-17.013-22.027-31.423-22.027-8.135 0-15.592 2.923-21.395 7.781a48.56 48.56 0 0 0-2.006.793C88.26-22.574 30.742 27.009 26.334 57.343 11.367 62.922.5 79.655.5 99.431.5 123.77 16.96 143.5 37.265 143.5h213.471c20.304 0 36.764-19.73 36.764-44.069 0-19.153-10.198-35.44-24.438-41.513z"/>
</svg>
