<svg xmlns="http://www.w3.org/2000/svg" width="18" height="18" viewBox="0 0 18 18">
    <g fill="none" fill-rule="evenodd">
        <path fill="#EEF3E8" d="M8.656 17.311C3.883 17.311 0 13.428 0 8.656 0 3.883 3.883 0 8.656 0c4.772 0 8.655 3.883 8.655 8.656 0 4.772-3.883 8.655-8.655 8.655" transform="translate(.542)"/>
        <path fill="#9FC180" stroke="#9FC180" stroke-width=".75" d="M8.069 9.62v-.523c-.282-2.056 2.092-2.08 2.443-3.596.166-.72-.647-1.439-1.61-1.379-.842.054-1.902.625-2.046 1.633-.048.234-.339.554-.645.5-.3-.053-.542-.313-.453-.71.252-1.117 1.673-2.135 3.144-2.26 1.433-.123 3.019.88 2.822 2.11-.342 2.143-2.873 1.757-2.518 3.822v.403c-.059.393-.995.44-1.137 0z" transform="translate(.542)"/>
        <path fill="#9FC180" d="M8.762 11.162c.788 0 1.5.64 1.5 1.46s-.687 1.46-1.5 1.46-1.5-.64-1.5-1.46.711-1.46 1.5-1.46" transform="translate(.542)"/>
    </g>
</svg>
