<svg xmlns="http://www.w3.org/2000/svg" width="16" height="16" fill="none" viewBox="0 0 16 16">
    <path fill="#238CC1" d="M6.286 2c-.474 0-.857.384-.857.857H2.857c-.473 0-.857.384-.857.857v.429c0 .237.192.428.429.428H13.57c.237 0 .429-.191.429-.428v-.429c0-.473-.384-.857-.857-.857H10.57c0-.473-.383-.857-.857-.857H6.286z"/>
    <path fill="#238CC1" fill-rule="evenodd" d="M3.33 5.429c-.253 0-.45.218-.426.47l.772 7.715c.022.22.206.386.426.386h7.796c.22 0 .404-.167.426-.386l.772-7.714c.025-.253-.173-.471-.427-.471H3.331zM6.287 7.57c0-.236-.192-.428-.429-.428s-.428.192-.428.428v4.286c0 .237.191.429.428.429s.429-.192.429-.429V7.571zM8 7.143c.237 0 .429.192.429.428v4.286c0 .237-.192.429-.429.429s-.429-.192-.429-.429V7.571c0-.236.192-.428.43-.428zm2.572.428c0-.236-.192-.428-.43-.428-.236 0-.428.192-.428.428v4.286c0 .237.192.429.429.429s.428-.192.428-.429V7.571z" clip-rule="evenodd"/>
</svg>
