<svg xmlns="http://www.w3.org/2000/svg" width="298.5" height="156.5">
    <path fill="#FFF" fill-rule="evenodd" stroke="#34E5DA" d="M249.259 56.861h-.62c-4.169-29.872-29.321-52.839-59.675-52.839-15.677 0-29.976 6.129-40.691 16.204C139.487 8.249 125.499.499 109.719.499c-21.909 0-40.401 14.951-46.277 35.41a57.998 57.998 0 0 0-4.371-.184C26.722 35.725.498 62.537.498 95.61c0 33.073 26.224 59.885 58.573 59.885 1.955 0 3.886-.103 5.792-.294 1.72.19 3.464.294 5.233.294h179.163c26.633 0 48.236-22.087 48.236-49.317s-21.603-49.317-48.236-49.317z"/>
</svg>
