<svg xmlns="http://www.w3.org/2000/svg" width="19" height="19" viewBox="0 0 19 19">
    <g fill="none" fill-rule="evenodd">
        <path fill="#E637A9" d="M.934 9.656c0 1.4.32 3.966 2.4 5.856.754.687-.521 2.839-2.874 3.3h9.63c5.048 0 9.155-4.107 9.155-9.156C19.245 4.608 15.138.5 10.09.5 5.042.5.934 4.608.934 9.656z" transform="translate(-.46 -.5)"/>
        <path fill="#FFF" stroke="#FFF" stroke-width=".75" d="M9.069 10.62v-.523c-.282-2.056 2.092-2.08 2.443-3.596.166-.72-.647-1.439-1.61-1.379-.842.054-1.902.625-2.046 1.633-.048.234-.339.554-.645.5-.3-.053-.542-.313-.453-.71.252-1.117 1.673-2.135 3.144-2.26 1.433-.123 3.019.88 2.822 2.11-.342 2.143-2.873 1.757-2.518 3.822v.403c-.059.393-.995.44-1.137 0z" transform="translate(-.46 -.5)"/>
        <path fill="#FFF" d="M9.762 12.162c.788 0 1.5.64 1.5 1.46s-.687 1.46-1.5 1.46-1.5-.64-1.5-1.46.711-1.46 1.5-1.46" transform="translate(-.46 -.5)"/>
    </g>
</svg>
